<mxfile host="app.diagrams.net" agent="Mozilla/5.0 (Macintosh; Intel Mac OS X 10_15_7) AppleWebKit/537.36 (KHTML, like Gecko) Chrome/127.0.0.0 Safari/537.36" version="24.7.8">
  <diagram name="Page-1" id="AcD72TWvCesFCWhttSEy">
    <mxGraphModel dx="5556" dy="2471" grid="1" gridSize="10" guides="1" tooltips="1" connect="1" arrows="1" fold="1" page="1" pageScale="1" pageWidth="850" pageHeight="1100" math="0" shadow="0">
      <root>
        <mxCell id="0" />
        <mxCell id="1" parent="0" />
        <mxCell id="lQ15d-zy-VrKAc11c6E_-68" value="" style="rounded=0;whiteSpace=wrap;html=1;sketch=1;curveFitting=1;jiggle=2;fillColor=#fff2cc;strokeColor=#d6b656;" vertex="1" parent="1">
          <mxGeometry x="980" y="120" width="360" height="550" as="geometry" />
        </mxCell>
        <mxCell id="lQ15d-zy-VrKAc11c6E_-118" value="" style="rounded=0;whiteSpace=wrap;html=1;sketch=1;curveFitting=1;jiggle=2;fillColor=#f5f5f5;strokeColor=#777777;fontStyle=1;fontColor=#000000;gradientColor=#b3b3b3;align=center;verticalAlign=middle;fontFamily=Helvetica;fontSize=12;" vertex="1" parent="1">
          <mxGeometry x="1060" y="563" width="180" height="90" as="geometry" />
        </mxCell>
        <mxCell id="lQ15d-zy-VrKAc11c6E_-117" value="" style="rounded=0;whiteSpace=wrap;html=1;sketch=1;curveFitting=1;jiggle=2;fillColor=#f5f5f5;strokeColor=#777777;fontStyle=1;fontColor=#000000;gradientColor=#b3b3b3;align=center;verticalAlign=middle;fontFamily=Helvetica;fontSize=12;" vertex="1" parent="1">
          <mxGeometry x="1060" y="420" width="180" height="90" as="geometry" />
        </mxCell>
        <mxCell id="lQ15d-zy-VrKAc11c6E_-115" value="" style="rounded=0;whiteSpace=wrap;html=1;sketch=1;curveFitting=1;jiggle=2;fillColor=#f5f5f5;strokeColor=#777777;fontStyle=1;fontColor=#000000;gradientColor=#b3b3b3;align=center;verticalAlign=middle;fontFamily=Helvetica;fontSize=12;" vertex="1" parent="1">
          <mxGeometry x="1005" y="290" width="310" height="90" as="geometry" />
        </mxCell>
        <mxCell id="lQ15d-zy-VrKAc11c6E_-111" value="" style="rounded=0;whiteSpace=wrap;html=1;sketch=1;curveFitting=1;jiggle=2;fillColor=#f5f5f5;strokeColor=#777777;fontStyle=1;fontColor=#000000;gradientColor=#b3b3b3;" vertex="1" parent="1">
          <mxGeometry x="1005" y="157" width="310" height="90" as="geometry" />
        </mxCell>
        <mxCell id="lQ15d-zy-VrKAc11c6E_-89" style="edgeStyle=orthogonalEdgeStyle;rounded=0;orthogonalLoop=1;jettySize=auto;html=1;flowAnimation=1;exitX=0.99;exitY=0.318;exitDx=0;exitDy=0;exitPerimeter=0;entryX=0;entryY=0.5;entryDx=0;entryDy=0;" edge="1" parent="1" source="lQ15d-zy-VrKAc11c6E_-52" target="lQ15d-zy-VrKAc11c6E_-54">
          <mxGeometry relative="1" as="geometry">
            <Array as="points">
              <mxPoint x="280" y="189" />
              <mxPoint x="280" y="82" />
            </Array>
          </mxGeometry>
        </mxCell>
        <mxCell id="lQ15d-zy-VrKAc11c6E_-90" value="step 1&lt;div&gt;trigger&lt;/div&gt;&lt;div&gt;infra as code&lt;/div&gt;" style="edgeLabel;html=1;align=center;verticalAlign=middle;resizable=0;points=[];" vertex="1" connectable="0" parent="lQ15d-zy-VrKAc11c6E_-89">
          <mxGeometry x="0.0943" y="1" relative="1" as="geometry">
            <mxPoint as="offset" />
          </mxGeometry>
        </mxCell>
        <mxCell id="lQ15d-zy-VrKAc11c6E_-48" value="" style="rounded=0;whiteSpace=wrap;html=1;sketch=1;curveFitting=1;jiggle=2;fillColor=#d5e8d4;strokeColor=#82b366;" vertex="1" parent="1">
          <mxGeometry x="-460" y="140" width="640" height="116" as="geometry" />
        </mxCell>
        <mxCell id="lQ15d-zy-VrKAc11c6E_-81" style="edgeStyle=orthogonalEdgeStyle;rounded=0;orthogonalLoop=1;jettySize=auto;html=1;entryX=0;entryY=0.5;entryDx=0;entryDy=0;sketch=1;curveFitting=1;jiggle=2;" edge="1" parent="1" source="lQ15d-zy-VrKAc11c6E_-49" target="lQ15d-zy-VrKAc11c6E_-51">
          <mxGeometry relative="1" as="geometry" />
        </mxCell>
        <mxCell id="lQ15d-zy-VrKAc11c6E_-83" value="create a new&amp;nbsp;&lt;div&gt;repository&lt;/div&gt;" style="edgeLabel;html=1;align=center;verticalAlign=middle;resizable=0;points=[];" vertex="1" connectable="0" parent="lQ15d-zy-VrKAc11c6E_-81">
          <mxGeometry x="0.1189" y="2" relative="1" as="geometry">
            <mxPoint x="-15" y="2" as="offset" />
          </mxGeometry>
        </mxCell>
        <mxCell id="lQ15d-zy-VrKAc11c6E_-94" style="edgeStyle=orthogonalEdgeStyle;rounded=0;orthogonalLoop=1;jettySize=auto;html=1;entryX=0.5;entryY=0;entryDx=0;entryDy=0;flowAnimation=1;" edge="1" parent="1" source="lQ15d-zy-VrKAc11c6E_-49" target="lQ15d-zy-VrKAc11c6E_-67">
          <mxGeometry relative="1" as="geometry">
            <Array as="points">
              <mxPoint x="-380" y="300" />
              <mxPoint x="-180" y="300" />
            </Array>
          </mxGeometry>
        </mxCell>
        <mxCell id="lQ15d-zy-VrKAc11c6E_-49" value="&lt;span&gt;Backstage&lt;/span&gt;" style="rounded=0;whiteSpace=wrap;html=1;fillColor=#d5e8d4;strokeColor=#2D7600;fontColor=#1A1A1A;fontStyle=1;sketch=1;curveFitting=1;jiggle=2;gradientColor=#97d077;" vertex="1" parent="1">
          <mxGeometry x="-440" y="173" width="120" height="50" as="geometry" />
        </mxCell>
        <mxCell id="lQ15d-zy-VrKAc11c6E_-82" style="edgeStyle=orthogonalEdgeStyle;rounded=0;orthogonalLoop=1;jettySize=auto;html=1;sketch=1;curveFitting=1;jiggle=2;" edge="1" parent="1" source="lQ15d-zy-VrKAc11c6E_-51" target="lQ15d-zy-VrKAc11c6E_-52">
          <mxGeometry relative="1" as="geometry" />
        </mxCell>
        <mxCell id="lQ15d-zy-VrKAc11c6E_-84" value="trigger&lt;div&gt;workflow&lt;/div&gt;" style="edgeLabel;html=1;align=center;verticalAlign=middle;resizable=0;points=[];" vertex="1" connectable="0" parent="lQ15d-zy-VrKAc11c6E_-82">
          <mxGeometry x="-0.1072" y="2" relative="1" as="geometry">
            <mxPoint as="offset" />
          </mxGeometry>
        </mxCell>
        <mxCell id="lQ15d-zy-VrKAc11c6E_-51" value="&lt;span&gt;Github&lt;/span&gt;" style="rounded=0;whiteSpace=wrap;html=1;sketch=1;curveFitting=1;jiggle=2;fillColor=#d5e8d4;strokeColor=#2D7600;fontColor=#1A1A1A;fontStyle=1;align=center;verticalAlign=middle;fontFamily=Helvetica;fontSize=12;gradientColor=#97d077;" vertex="1" parent="1">
          <mxGeometry x="-205" y="173" width="120" height="50" as="geometry" />
        </mxCell>
        <mxCell id="lQ15d-zy-VrKAc11c6E_-97" style="edgeStyle=orthogonalEdgeStyle;rounded=0;orthogonalLoop=1;jettySize=auto;html=1;entryX=0.5;entryY=0;entryDx=0;entryDy=0;flowAnimation=1;" edge="1" parent="1" source="lQ15d-zy-VrKAc11c6E_-52" target="lQ15d-zy-VrKAc11c6E_-60">
          <mxGeometry relative="1" as="geometry">
            <Array as="points">
              <mxPoint x="280" y="198" />
              <mxPoint x="280" y="620" />
            </Array>
          </mxGeometry>
        </mxCell>
        <mxCell id="lQ15d-zy-VrKAc11c6E_-98" value="step 1&amp;nbsp;&lt;div&gt;trigger&amp;nbsp;&lt;/div&gt;&lt;div&gt;code security&lt;/div&gt;" style="edgeLabel;html=1;align=center;verticalAlign=middle;resizable=0;points=[];" vertex="1" connectable="0" parent="lQ15d-zy-VrKAc11c6E_-97">
          <mxGeometry x="0.161" relative="1" as="geometry">
            <mxPoint y="-62" as="offset" />
          </mxGeometry>
        </mxCell>
        <mxCell id="lQ15d-zy-VrKAc11c6E_-52" value="&lt;span&gt;Github Actions&lt;/span&gt;" style="rounded=0;whiteSpace=wrap;html=1;sketch=1;curveFitting=1;jiggle=2;fillColor=#d5e8d4;strokeColor=#2D7600;fontColor=#1A1A1A;fontStyle=1;align=center;verticalAlign=middle;fontFamily=Helvetica;fontSize=12;gradientColor=#97d077;" vertex="1" parent="1">
          <mxGeometry x="30" y="173" width="120" height="50" as="geometry" />
        </mxCell>
        <mxCell id="lQ15d-zy-VrKAc11c6E_-53" value="" style="rounded=0;whiteSpace=wrap;html=1;sketch=1;curveFitting=1;jiggle=2;fillColor=#dae8fc;strokeColor=#6c8ebf;" vertex="1" parent="1">
          <mxGeometry x="380" y="20" width="370" height="120" as="geometry" />
        </mxCell>
        <mxCell id="lQ15d-zy-VrKAc11c6E_-85" style="edgeStyle=orthogonalEdgeStyle;rounded=0;orthogonalLoop=1;jettySize=auto;html=1;sketch=1;curveFitting=1;jiggle=2;" edge="1" parent="1" source="lQ15d-zy-VrKAc11c6E_-54" target="lQ15d-zy-VrKAc11c6E_-55">
          <mxGeometry relative="1" as="geometry" />
        </mxCell>
        <mxCell id="lQ15d-zy-VrKAc11c6E_-86" value="create&lt;div&gt;resources&lt;/div&gt;" style="edgeLabel;html=1;align=center;verticalAlign=middle;resizable=0;points=[];" vertex="1" connectable="0" parent="lQ15d-zy-VrKAc11c6E_-85">
          <mxGeometry x="0.3079" relative="1" as="geometry">
            <mxPoint x="-19" y="-2" as="offset" />
          </mxGeometry>
        </mxCell>
        <mxCell id="lQ15d-zy-VrKAc11c6E_-91" style="edgeStyle=orthogonalEdgeStyle;rounded=0;orthogonalLoop=1;jettySize=auto;html=1;entryX=0;entryY=0.5;entryDx=0;entryDy=0;flowAnimation=1;" edge="1" parent="1" source="lQ15d-zy-VrKAc11c6E_-54" target="lQ15d-zy-VrKAc11c6E_-57">
          <mxGeometry relative="1" as="geometry">
            <Array as="points">
              <mxPoint x="490" y="314" />
            </Array>
          </mxGeometry>
        </mxCell>
        <mxCell id="lQ15d-zy-VrKAc11c6E_-92" value="step 3&lt;div&gt;deploy ArgoCD&lt;/div&gt;" style="edgeLabel;html=1;align=center;verticalAlign=middle;resizable=0;points=[];" vertex="1" connectable="0" parent="lQ15d-zy-VrKAc11c6E_-91">
          <mxGeometry x="-0.2533" y="-5" relative="1" as="geometry">
            <mxPoint y="-1" as="offset" />
          </mxGeometry>
        </mxCell>
        <mxCell id="lQ15d-zy-VrKAc11c6E_-99" value="step 2&lt;div&gt;report resources&lt;/div&gt;&lt;div&gt;to Backstage&lt;/div&gt;" style="edgeStyle=orthogonalEdgeStyle;rounded=0;orthogonalLoop=1;jettySize=auto;html=1;exitX=0.25;exitY=1;exitDx=0;exitDy=0;entryX=1;entryY=0.25;entryDx=0;entryDy=0;flowAnimation=1;" edge="1" parent="1" source="lQ15d-zy-VrKAc11c6E_-54" target="lQ15d-zy-VrKAc11c6E_-66">
          <mxGeometry x="-0.3179" y="10" relative="1" as="geometry">
            <mxPoint as="offset" />
          </mxGeometry>
        </mxCell>
        <mxCell id="lQ15d-zy-VrKAc11c6E_-54" value="Terraform" style="rounded=0;whiteSpace=wrap;html=1;sketch=1;curveFitting=1;jiggle=2;fillColor=#dae8fc;strokeColor=#006EAF;fontColor=#1A1A1A;fontStyle=1;shadow=0;glass=0;labelBackgroundColor=none;gradientColor=#7ea6e0;" vertex="1" parent="1">
          <mxGeometry x="400" y="57" width="120" height="50" as="geometry" />
        </mxCell>
        <mxCell id="lQ15d-zy-VrKAc11c6E_-105" style="edgeStyle=orthogonalEdgeStyle;rounded=0;orthogonalLoop=1;jettySize=auto;html=1;entryX=0;entryY=0.5;entryDx=0;entryDy=0;flowAnimation=1;" edge="1" parent="1" source="lQ15d-zy-VrKAc11c6E_-57" target="lQ15d-zy-VrKAc11c6E_-68">
          <mxGeometry relative="1" as="geometry" />
        </mxCell>
        <mxCell id="lQ15d-zy-VrKAc11c6E_-106" value="step 4&lt;div&gt;deploy kubernes&lt;/div&gt;&lt;div&gt;manifests&lt;/div&gt;" style="edgeLabel;html=1;align=center;verticalAlign=middle;resizable=0;points=[];" vertex="1" connectable="0" parent="lQ15d-zy-VrKAc11c6E_-105">
          <mxGeometry x="0.1531" y="-1" relative="1" as="geometry">
            <mxPoint x="6" y="-13" as="offset" />
          </mxGeometry>
        </mxCell>
        <mxCell id="lQ15d-zy-VrKAc11c6E_-57" value="" style="rounded=0;whiteSpace=wrap;html=1;sketch=1;curveFitting=1;jiggle=2;fillColor=#ffb570;strokeColor=#b46504;" vertex="1" parent="1">
          <mxGeometry x="610" y="256" width="200" height="116" as="geometry" />
        </mxCell>
        <mxCell id="lQ15d-zy-VrKAc11c6E_-122" style="edgeStyle=orthogonalEdgeStyle;rounded=0;orthogonalLoop=1;jettySize=auto;html=1;entryX=1;entryY=0.75;entryDx=0;entryDy=0;flowAnimation=1;" edge="1" parent="1" source="lQ15d-zy-VrKAc11c6E_-58" target="lQ15d-zy-VrKAc11c6E_-66">
          <mxGeometry relative="1" as="geometry">
            <Array as="points">
              <mxPoint x="700" y="493" />
            </Array>
          </mxGeometry>
        </mxCell>
        <mxCell id="lQ15d-zy-VrKAc11c6E_-123" value="step 5&lt;div&gt;report manifests&lt;/div&gt;&lt;div&gt;to backstage&lt;/div&gt;" style="edgeLabel;html=1;align=center;verticalAlign=middle;resizable=0;points=[];" vertex="1" connectable="0" parent="lQ15d-zy-VrKAc11c6E_-122">
          <mxGeometry x="-0.7751" y="2" relative="1" as="geometry">
            <mxPoint y="1" as="offset" />
          </mxGeometry>
        </mxCell>
        <mxCell id="lQ15d-zy-VrKAc11c6E_-58" value="ArgoCD" style="rounded=0;whiteSpace=wrap;html=1;sketch=1;curveFitting=1;jiggle=2;fillColor=#ffcd28;strokeColor=#BD7000;fontColor=#000000;fontStyle=1;gradientColor=#ffb570;" vertex="1" parent="1">
          <mxGeometry x="650" y="289" width="120" height="50" as="geometry" />
        </mxCell>
        <mxCell id="lQ15d-zy-VrKAc11c6E_-102" style="edgeStyle=orthogonalEdgeStyle;rounded=0;orthogonalLoop=1;jettySize=auto;html=1;entryX=0.5;entryY=0;entryDx=0;entryDy=0;flowAnimation=1;" edge="1" parent="1" source="lQ15d-zy-VrKAc11c6E_-60" target="lQ15d-zy-VrKAc11c6E_-63">
          <mxGeometry relative="1" as="geometry" />
        </mxCell>
        <mxCell id="lQ15d-zy-VrKAc11c6E_-60" value="" style="rounded=0;whiteSpace=wrap;html=1;sketch=1;curveFitting=1;jiggle=2;fillColor=#f8cecc;strokeColor=#b85450;" vertex="1" parent="1">
          <mxGeometry x="179" y="620" width="200" height="182" as="geometry" />
        </mxCell>
        <mxCell id="lQ15d-zy-VrKAc11c6E_-61" value="Trivy" style="rounded=0;whiteSpace=wrap;html=1;sketch=1;curveFitting=1;jiggle=2;fillColor=#f8cecc;strokeColor=#A50040;fontStyle=1;fontColor=#1A1A1A;gradientColor=#ea6b66;" vertex="1" parent="1">
          <mxGeometry x="219" y="653" width="120" height="50" as="geometry" />
        </mxCell>
        <mxCell id="lQ15d-zy-VrKAc11c6E_-62" value="Sonar Cloud" style="rounded=0;whiteSpace=wrap;html=1;sketch=1;curveFitting=1;jiggle=2;fillColor=#f8cecc;strokeColor=#A50040;fontStyle=1;fontColor=#1A1A1A;align=center;verticalAlign=middle;fontFamily=Helvetica;fontSize=12;gradientColor=#ea6b66;" vertex="1" parent="1">
          <mxGeometry x="219" y="732" width="120" height="50" as="geometry" />
        </mxCell>
        <mxCell id="lQ15d-zy-VrKAc11c6E_-63" value="" style="rounded=0;whiteSpace=wrap;html=1;sketch=1;curveFitting=1;jiggle=2;fillColor=#e1d5e7;strokeColor=#9673a6;" vertex="1" parent="1">
          <mxGeometry x="179" y="889" width="200" height="182" as="geometry" />
        </mxCell>
        <mxCell id="lQ15d-zy-VrKAc11c6E_-64" value="Build" style="rounded=0;whiteSpace=wrap;html=1;sketch=1;curveFitting=1;jiggle=2;fillColor=#e6d0de;strokeColor=#3700CC;fontStyle=1;fontColor=#1A1A1A;gradientColor=#d5739d;" vertex="1" parent="1">
          <mxGeometry x="219" y="922" width="120" height="50" as="geometry" />
        </mxCell>
        <mxCell id="lQ15d-zy-VrKAc11c6E_-65" value="Push" style="rounded=0;whiteSpace=wrap;html=1;sketch=1;curveFitting=1;jiggle=2;fillColor=#e6d0de;strokeColor=#3700CC;fontStyle=1;fontColor=#1A1A1A;align=center;verticalAlign=middle;fontFamily=Helvetica;fontSize=12;gradientColor=#d5739d;" vertex="1" parent="1">
          <mxGeometry x="219" y="1001" width="120" height="50" as="geometry" />
        </mxCell>
        <mxCell id="lQ15d-zy-VrKAc11c6E_-66" value="" style="rounded=0;whiteSpace=wrap;html=1;sketch=1;curveFitting=1;jiggle=2;fillColor=#d5e8d4;strokeColor=#82b366;" vertex="1" parent="1">
          <mxGeometry x="-300" y="380" width="240" height="150" as="geometry" />
        </mxCell>
        <mxCell id="lQ15d-zy-VrKAc11c6E_-67" value="Queue to update entities in Backstage" style="rounded=0;whiteSpace=wrap;html=1;sketch=1;curveFitting=1;jiggle=2;fillColor=#d5e8d4;strokeColor=#2D7600;fontColor=#1A1A1A;fontStyle=1;fontSize=12;align=center;verticalAlign=middle;fontFamily=Helvetica;gradientColor=#97d077;" vertex="1" parent="1">
          <mxGeometry x="-260" y="420" width="160" height="70" as="geometry" />
        </mxCell>
        <mxCell id="lQ15d-zy-VrKAc11c6E_-69" value="Grafana" style="rounded=0;whiteSpace=wrap;html=1;sketch=1;curveFitting=1;jiggle=2;fillColor=#fff2cc;strokeColor=#B09500;fontStyle=1;fontColor=#000000;gradientColor=#ffd966;" vertex="1" parent="1">
          <mxGeometry x="1030" y="177" width="120" height="50" as="geometry" />
        </mxCell>
        <mxCell id="lQ15d-zy-VrKAc11c6E_-70" value="Prometheus" style="rounded=0;whiteSpace=wrap;html=1;sketch=1;curveFitting=1;jiggle=2;fillColor=#fff2cc;strokeColor=#B09500;fontStyle=1;fontColor=#000000;align=center;verticalAlign=middle;fontFamily=Helvetica;fontSize=12;gradientColor=#ffd966;" vertex="1" parent="1">
          <mxGeometry x="1170" y="177" width="120" height="50" as="geometry" />
        </mxCell>
        <mxCell id="lQ15d-zy-VrKAc11c6E_-71" value="Hashicorp Vault" style="rounded=0;whiteSpace=wrap;html=1;sketch=1;curveFitting=1;jiggle=2;fillColor=#fff2cc;strokeColor=#B09500;fontStyle=1;fontColor=#000000;align=center;verticalAlign=middle;fontFamily=Helvetica;fontSize=12;gradientColor=#ffd966;" vertex="1" parent="1">
          <mxGeometry x="1030" y="311" width="120" height="50" as="geometry" />
        </mxCell>
        <mxCell id="lQ15d-zy-VrKAc11c6E_-72" value="External Secrets" style="rounded=0;whiteSpace=wrap;html=1;sketch=1;curveFitting=1;jiggle=2;fillColor=#fff2cc;strokeColor=#B09500;fontStyle=1;fontColor=#000000;align=center;verticalAlign=middle;fontFamily=Helvetica;fontSize=12;gradientColor=#ffd966;" vertex="1" parent="1">
          <mxGeometry x="1170" y="311" width="120" height="50" as="geometry" />
        </mxCell>
        <mxCell id="lQ15d-zy-VrKAc11c6E_-108" style="edgeStyle=orthogonalEdgeStyle;rounded=0;orthogonalLoop=1;jettySize=auto;html=1;entryX=0;entryY=0.5;entryDx=0;entryDy=0;flowAnimation=1;" edge="1" parent="1" source="lQ15d-zy-VrKAc11c6E_-73" target="lQ15d-zy-VrKAc11c6E_-112">
          <mxGeometry relative="1" as="geometry">
            <mxPoint x="1390" y="425" as="targetPoint" />
          </mxGeometry>
        </mxCell>
        <mxCell id="lQ15d-zy-VrKAc11c6E_-73" value="External DNS" style="rounded=0;whiteSpace=wrap;html=1;sketch=1;curveFitting=1;jiggle=2;fillColor=#fff2cc;strokeColor=#B09500;fontStyle=1;fontColor=#000000;align=center;verticalAlign=middle;fontFamily=Helvetica;fontSize=12;gradientColor=#ffd966;" vertex="1" parent="1">
          <mxGeometry x="1090" y="440" width="120" height="50" as="geometry" />
        </mxCell>
        <mxCell id="lQ15d-zy-VrKAc11c6E_-74" value="OpenCost" style="rounded=0;whiteSpace=wrap;html=1;sketch=1;curveFitting=1;jiggle=2;fillColor=#fff2cc;strokeColor=#B09500;fontStyle=1;fontColor=#000000;align=center;verticalAlign=middle;fontFamily=Helvetica;fontSize=12;gradientColor=#ffd966;" vertex="1" parent="1">
          <mxGeometry x="1090" y="583" width="120" height="50" as="geometry" />
        </mxCell>
        <mxCell id="lQ15d-zy-VrKAc11c6E_-79" style="edgeStyle=orthogonalEdgeStyle;rounded=0;orthogonalLoop=1;jettySize=auto;html=1;entryX=0.5;entryY=0;entryDx=0;entryDy=0;curved=1;sketch=1;curveFitting=1;jiggle=2;" edge="1" parent="1" source="lQ15d-zy-VrKAc11c6E_-75" target="lQ15d-zy-VrKAc11c6E_-49">
          <mxGeometry relative="1" as="geometry" />
        </mxCell>
        <mxCell id="lQ15d-zy-VrKAc11c6E_-80" value="Request a new&amp;nbsp;&lt;div&gt;code/resource&lt;/div&gt;" style="edgeLabel;html=1;align=center;verticalAlign=middle;resizable=0;points=[];" vertex="1" connectable="0" parent="lQ15d-zy-VrKAc11c6E_-79">
          <mxGeometry x="-0.3654" y="-3" relative="1" as="geometry">
            <mxPoint as="offset" />
          </mxGeometry>
        </mxCell>
        <mxCell id="lQ15d-zy-VrKAc11c6E_-75" value="" style="shape=actor;whiteSpace=wrap;html=1;" vertex="1" parent="1">
          <mxGeometry x="-580" y="70" width="60" height="60" as="geometry" />
        </mxCell>
        <mxCell id="lQ15d-zy-VrKAc11c6E_-77" style="edgeStyle=orthogonalEdgeStyle;rounded=0;orthogonalLoop=1;jettySize=auto;html=1;entryX=0.5;entryY=0;entryDx=0;entryDy=0;sketch=1;curveFitting=1;jiggle=2;curved=1;exitX=1;exitY=0.5;exitDx=0;exitDy=0;" edge="1" parent="1" source="lQ15d-zy-VrKAc11c6E_-76" target="lQ15d-zy-VrKAc11c6E_-75">
          <mxGeometry relative="1" as="geometry">
            <mxPoint x="-630" y="74.09090909090901" as="sourcePoint" />
            <mxPoint x="-570" y="99" as="targetPoint" />
          </mxGeometry>
        </mxCell>
        <mxCell id="lQ15d-zy-VrKAc11c6E_-76" value="&lt;b&gt;Developer&lt;/b&gt;" style="text;html=1;align=center;verticalAlign=middle;whiteSpace=wrap;rounded=0;" vertex="1" parent="1">
          <mxGeometry x="-670" y="10" width="60" height="30" as="geometry" />
        </mxCell>
        <mxCell id="lQ15d-zy-VrKAc11c6E_-87" value="Cloud provider" style="text;html=1;align=center;verticalAlign=middle;whiteSpace=wrap;rounded=0;" vertex="1" parent="1">
          <mxGeometry x="630" y="27" width="80" height="30" as="geometry" />
        </mxCell>
        <mxCell id="lQ15d-zy-VrKAc11c6E_-55" value="&lt;span&gt;Kubernetes&amp;nbsp;&lt;/span&gt;&lt;div&gt;&lt;span&gt;Service&lt;/span&gt;&lt;/div&gt;" style="rounded=0;whiteSpace=wrap;html=1;sketch=1;curveFitting=1;jiggle=2;fillColor=#dae8fc;strokeColor=#006EAF;fontColor=#1A1A1A;fontStyle=1;shadow=0;glass=0;align=center;verticalAlign=middle;fontFamily=Helvetica;fontSize=12;labelBackgroundColor=none;gradientColor=#7ea6e0;" vertex="1" parent="1">
          <mxGeometry x="610" y="57" width="120" height="50" as="geometry" />
        </mxCell>
        <mxCell id="lQ15d-zy-VrKAc11c6E_-96" style="edgeStyle=orthogonalEdgeStyle;rounded=0;orthogonalLoop=1;jettySize=auto;html=1;entryX=0.75;entryY=0;entryDx=0;entryDy=0;curved=1;sketch=1;curveFitting=1;jiggle=2;" edge="1" parent="1" source="lQ15d-zy-VrKAc11c6E_-95" target="lQ15d-zy-VrKAc11c6E_-66">
          <mxGeometry relative="1" as="geometry" />
        </mxCell>
        <mxCell id="lQ15d-zy-VrKAc11c6E_-95" value="Update&lt;div&gt;entities in&amp;nbsp;&lt;/div&gt;&lt;div&gt;Backstage&lt;/div&gt;" style="text;html=1;align=center;verticalAlign=middle;whiteSpace=wrap;rounded=0;" vertex="1" parent="1">
          <mxGeometry x="-50" y="309" width="90" height="61" as="geometry" />
        </mxCell>
        <mxCell id="lQ15d-zy-VrKAc11c6E_-101" style="edgeStyle=orthogonalEdgeStyle;rounded=0;orthogonalLoop=1;jettySize=auto;html=1;entryX=0.75;entryY=0;entryDx=0;entryDy=0;sketch=1;curveFitting=1;jiggle=2;curved=1;exitX=0;exitY=0.5;exitDx=0;exitDy=0;" edge="1" parent="1" source="lQ15d-zy-VrKAc11c6E_-100" target="lQ15d-zy-VrKAc11c6E_-60">
          <mxGeometry relative="1" as="geometry" />
        </mxCell>
        <mxCell id="lQ15d-zy-VrKAc11c6E_-100" value="Scan code" style="text;html=1;align=center;verticalAlign=middle;whiteSpace=wrap;rounded=0;" vertex="1" parent="1">
          <mxGeometry x="379" y="570" width="60" height="30" as="geometry" />
        </mxCell>
        <mxCell id="lQ15d-zy-VrKAc11c6E_-104" style="edgeStyle=orthogonalEdgeStyle;rounded=0;orthogonalLoop=1;jettySize=auto;html=1;entryX=0.75;entryY=0;entryDx=0;entryDy=0;sketch=1;curveFitting=1;jiggle=2;curved=1;" edge="1" parent="1" source="lQ15d-zy-VrKAc11c6E_-103" target="lQ15d-zy-VrKAc11c6E_-63">
          <mxGeometry relative="1" as="geometry" />
        </mxCell>
        <mxCell id="lQ15d-zy-VrKAc11c6E_-103" value="Build image" style="text;html=1;align=center;verticalAlign=middle;whiteSpace=wrap;rounded=0;" vertex="1" parent="1">
          <mxGeometry x="389" y="850" width="60" height="30" as="geometry" />
        </mxCell>
        <mxCell id="lQ15d-zy-VrKAc11c6E_-110" style="edgeStyle=orthogonalEdgeStyle;rounded=0;orthogonalLoop=1;jettySize=auto;html=1;entryX=0.75;entryY=0;entryDx=0;entryDy=0;sketch=1;curveFitting=1;jiggle=2;curved=1;exitX=0;exitY=0.5;exitDx=0;exitDy=0;" edge="1" parent="1" source="lQ15d-zy-VrKAc11c6E_-109" target="lQ15d-zy-VrKAc11c6E_-68">
          <mxGeometry relative="1" as="geometry" />
        </mxCell>
        <mxCell id="lQ15d-zy-VrKAc11c6E_-109" value="Kubernetes operators" style="text;html=1;align=center;verticalAlign=middle;whiteSpace=wrap;rounded=0;" vertex="1" parent="1">
          <mxGeometry x="1310" y="74" width="60" height="30" as="geometry" />
        </mxCell>
        <mxCell id="lQ15d-zy-VrKAc11c6E_-112" value="Cloudflare DNS" style="rounded=0;whiteSpace=wrap;html=1;sketch=1;curveFitting=1;jiggle=2;fillColor=#f5f5f5;strokeColor=#777777;fontStyle=1;fontColor=#000000;gradientColor=#b3b3b3;align=center;verticalAlign=middle;fontFamily=Helvetica;fontSize=12;" vertex="1" parent="1">
          <mxGeometry x="1400" y="440" width="120" height="50" as="geometry" />
        </mxCell>
        <mxCell id="lQ15d-zy-VrKAc11c6E_-114" value="Observability" style="text;html=1;align=center;verticalAlign=middle;whiteSpace=wrap;rounded=0;fontStyle=1" vertex="1" parent="1">
          <mxGeometry x="1130" y="130" width="60" height="30" as="geometry" />
        </mxCell>
        <mxCell id="lQ15d-zy-VrKAc11c6E_-116" value="Security" style="text;html=1;align=center;verticalAlign=middle;whiteSpace=wrap;rounded=0;fontStyle=1" vertex="1" parent="1">
          <mxGeometry x="1130" y="262" width="60" height="30" as="geometry" />
        </mxCell>
        <mxCell id="lQ15d-zy-VrKAc11c6E_-119" value="Cost" style="text;html=1;align=center;verticalAlign=middle;whiteSpace=wrap;rounded=0;fontStyle=1" vertex="1" parent="1">
          <mxGeometry x="1130" y="540" width="60" height="30" as="geometry" />
        </mxCell>
        <mxCell id="lQ15d-zy-VrKAc11c6E_-120" value="DNS" style="text;html=1;align=center;verticalAlign=middle;whiteSpace=wrap;rounded=0;fontStyle=1" vertex="1" parent="1">
          <mxGeometry x="1130" y="395" width="60" height="30" as="geometry" />
        </mxCell>
      </root>
    </mxGraphModel>
  </diagram>
</mxfile>
